<svg xmlns="http://www.w3.org/2000/svg" xmlns:xlink="http://www.w3.org/1999/xlink" width="417.686" height="384.714" viewBox="0 0 417.686 384.714">
  <defs>
    <filter id="Path_37999" x="201.31" y="50.508" width="142.926" height="144.065" filterUnits="userSpaceOnUse">
      <feOffset dx="-10" dy="13" input="SourceAlpha"/>
      <feGaussianBlur stdDeviation="13" result="blur"/>
      <feFlood flood-opacity="0.059"/>
      <feComposite operator="in" in2="blur"/>
      <feComposite in="SourceGraphic"/>
    </filter>
    <clipPath id="clip-path">
      <path id="Path_38105" data-name="Path 38105" d="M562.557,359.4h0c-5.043,5.993-15.106,39.455-15.106,39.455l15.678,5.641,3.138-6.374s13.605,30.952-6.566,57.97c-18.727,25.073,32.359,20.437,39.817,19.637,7.456.8,58.532,5.444,39.815-19.637-20.169-27.018-6.565-57.97-6.565-57.97L635.9,404.5l14.746-5.708s-9.786-34.058-14.176-39.388c-4.882-5.932-28.859-6.882-28.859-6.882s-2.411,6.344-8.493,6.344-8.023-6.407-8.023-6.407-24.1,1.661-28.542,6.945" transform="translate(-547.447 -352.46)" fill="none"/>
    </clipPath>
  </defs>
  <g id="Group_46863" data-name="Group 46863" transform="translate(-203.919 -323.866)">
    <g id="Group_46282" data-name="Group 46282" transform="translate(146.409 323.866)">
      <g id="Group_46283" data-name="Group 46283">
        <g id="Group_46276" data-name="Group 46276">
          <g id="Group_46284" data-name="Group 46284">
            <path id="Path_37997" data-name="Path 37997" d="M333.924,304.518H171.973a22.022,22.022,0,0,1-22.022-22.023V22.024A22.023,22.023,0,0,1,171.973,0H333.924a22.023,22.023,0,0,1,22.023,22.024V282.495a22.023,22.023,0,0,1-22.023,22.023" transform="translate(-54.421 0)" fill="#eaeaeb"/>
            <path id="Path_37998" data-name="Path 37998" d="M394.653,368.029H232.7a22.023,22.023,0,0,1-22.023-22.023V85.535A22.024,22.024,0,0,1,232.7,63.511H394.653a22.023,22.023,0,0,1,22.023,22.024V346.006a22.023,22.023,0,0,1-22.023,22.023" transform="translate(-76.461 -23.05)" fill="#fff"/>
            <g transform="matrix(1, 0, 0, 1, 57.51, 0)" filter="url(#Path_37999)">
              <path id="Path_37999-2" data-name="Path 37999" d="M536.4,186.157h-41.51a11.708,11.708,0,0,1-11.708-11.708V131.8a11.708,11.708,0,0,1,11.708-11.707H536.4A11.708,11.708,0,0,1,548.1,131.8v42.65A11.708,11.708,0,0,1,536.4,186.157" transform="translate(-232.87 -43.58)" fill="#fff"/>
            </g>
            <path id="Path_38000" data-name="Path 38000" d="M384.85,481.345H268.455a22.023,22.023,0,0,1-22.023-22.023V288.279a22.023,22.023,0,0,1,22.023-22.023H384.85a22.023,22.023,0,0,1,22.023,22.023V459.322a22.023,22.023,0,0,1-22.023,22.023" transform="translate(-89.437 -96.631)" fill="#023677"/>
            <path id="Path_38001" data-name="Path 38001" d="M197.063,432.1H101.982a11.708,11.708,0,0,1-11.709-11.707V323.231a11.708,11.708,0,0,1,11.709-11.708h95.081a11.707,11.707,0,0,1,11.707,11.708v97.161A11.707,11.707,0,0,1,197.063,432.1" transform="translate(-32.762 -113.06)" fill="#fff"/>
            <path id="Path_38002" data-name="Path 38002" d="M510.78,153.932c.032-.615.048-1.231.1-1.844a1.554,1.554,0,0,1,.8-1.238,5.038,5.038,0,0,1,.755-.327c.4-.157.81-.306,1.216-.458l.989-.367,1.165-.438.973-.368,1.012-.381.977-.361,1.165-.438,1.014-.379,1.152-.433,1.216-.459,1.43-.54c.33-.124.666-.233.988-.373a1.633,1.633,0,0,1,.926-.141,3.86,3.86,0,0,1,.661.19c.421.149.838.31,1.256.466l1.368.517,1.2.453,1.432.539,1.167.436c.413.156.826.315,1.24.47.4.148.8.29,1.193.439s.784.3,1.176.447l.962.361,1,.376c.325.121.653.236.975.364a3.752,3.752,0,0,1,1.179.561,1.625,1.625,0,0,1,.58,1.084,9.974,9.974,0,0,1,.064,1.084c-.016,1.068-.034,2.137-.088,3.2-.034.672-.131,1.342-.21,2.011q-.082.7-.193,1.4c-.058.366-.134.729-.206,1.093-.064.324-.125.647-.2.969-.089.383-.185.763-.285,1.144q-.134.51-.282,1.017c-.083.286-.17.571-.265.853q-.179.532-.373,1.059c-.141.381-.28.763-.439,1.136-.194.456-.4.909-.615,1.354-.245.5-.485,1.01-.77,1.489-.436.737-.885,1.47-1.37,2.175a22.257,22.257,0,0,1-4.026,4.416,21.5,21.5,0,0,1-2.873,2.056c-.628.373-1.275.714-1.921,1.054a7.785,7.785,0,0,1-.984.446,1.7,1.7,0,0,1-1.381-.1c-.411-.206-.826-.406-1.229-.626-.53-.289-1.058-.585-1.576-.9a22.423,22.423,0,0,1-5.983-5.362c-.521-.686-1.014-1.4-1.479-2.12-.4-.626-.762-1.279-1.108-1.937-.283-.538-.53-1.1-.77-1.655-.249-.58-.478-1.168-.7-1.758-.135-.359-.244-.728-.358-1.093-.129-.413-.259-.828-.373-1.245-.1-.374-.192-.752-.279-1.131-.1-.436-.2-.872-.287-1.311-.074-.368-.137-.738-.2-1.109q-.113-.718-.211-1.437c-.04-.287-.076-.575-.1-.863-.1-1.156-.192-2.311-.2-3.473m15.17,8.888c-.057-.053-.095-.085-.13-.12q-1.017-1.016-2.034-2.033a1.738,1.738,0,1,0-2.5,2.418q1.657,1.658,3.312,3.318a2.032,2.032,0,0,0,.857.573,1.659,1.659,0,0,0,1.737-.432c.773-.78,1.525-1.581,2.285-2.374l5.12-5.351a1.72,1.72,0,0,0,.433-1.917,1.62,1.62,0,0,0-1.24-1.065,1.687,1.687,0,0,0-1.645.513q-2.843,2.978-5.691,5.95c-.165.172-.334.34-.51.52" transform="translate(-185.375 -52.758)" fill="#023677"/>
            <path id="Path_38003" data-name="Path 38003" d="M531.634,168.76c.176-.18.345-.348.51-.52q2.846-2.974,5.691-5.95a1.687,1.687,0,0,1,1.645-.513,1.62,1.62,0,0,1,1.24,1.065,1.72,1.72,0,0,1-.433,1.917l-5.12,5.351c-.76.793-1.512,1.594-2.285,2.374a1.659,1.659,0,0,1-1.737.432,2.03,2.03,0,0,1-.857-.573q-1.651-1.664-3.312-3.318a1.738,1.738,0,1,1,2.5-2.418q1.016,1.018,2.034,2.033c.035.034.073.067.13.12" transform="translate(-191.06 -58.697)" fill="#fff"/>
            <path id="Path_38004" data-name="Path 38004" d="M115.114,441.854v.838h-1.829V448h-.919v-5.31h-1.83v-.838Z" transform="translate(-40.116 -160.36)"/>
            <path id="Path_38005" data-name="Path 38005" d="M120.5,444.947l-.152.83a1.481,1.481,0,0,0-.616-.143c-.759,0-1.116.812-1.116,1.936v1.5h-.884V444.9h.884v.937c.214-.732.634-1.044,1.169-1.044a1.612,1.612,0,0,1,.715.152" transform="translate(-42.728 -161.428)"/>
            <path id="Path_38006" data-name="Path 38006" d="M126.112,444.9h.875v4.168h-.875v-.7a1.689,1.689,0,0,1-1.482.812,2.2,2.2,0,0,1,.036-4.382,1.627,1.627,0,0,1,1.446.733Zm-.009,2.08a1.366,1.366,0,0,0-1.339-1.366,1.373,1.373,0,0,0,.018,2.739,1.353,1.353,0,0,0,1.321-1.374" transform="translate(-44.497 -161.428)"/>
            <path id="Path_38007" data-name="Path 38007" d="M135.436,446.687v2.383h-.875v-2.329a.972.972,0,0,0-.946-1.089,1.128,1.128,0,0,0-1.2,1.179v2.239h-.875V444.9h.875v.643a1.552,1.552,0,0,1,1.356-.75c1.053,0,1.679.705,1.669,1.892" transform="translate(-47.738 -161.428)"/>
            <path id="Path_38008" data-name="Path 38008" d="M139.138,447.82h.812c0,.331.294.616.767.616s.777-.241.777-.554c0-.276-.222-.42-.535-.491l-.562-.134c-.777-.205-1.134-.606-1.134-1.223a1.352,1.352,0,0,1,1.481-1.24,1.321,1.321,0,0,1,1.482,1.249h-.839a.58.58,0,0,0-.624-.508.564.564,0,0,0-.616.526c0,.259.241.4.5.464l.633.152a1.218,1.218,0,0,1,1.089,1.223c0,.794-.785,1.276-1.642,1.276a1.473,1.473,0,0,1-1.589-1.356" transform="translate(-50.497 -161.428)"/>
            <path id="Path_38009" data-name="Path 38009" d="M148.889,444.9h.875v4.168h-.875v-.7a1.689,1.689,0,0,1-1.482.812,2.2,2.2,0,0,1,.036-4.382,1.627,1.627,0,0,1,1.446.733Zm-.009,2.08a1.366,1.366,0,0,0-1.339-1.366,1.373,1.373,0,0,0,.018,2.739,1.353,1.353,0,0,0,1.321-1.374" transform="translate(-52.763 -161.428)"/>
            <path id="Path_38010" data-name="Path 38010" d="M153.879,446.982a2.171,2.171,0,0,1,2.249-2.187,2.09,2.09,0,0,1,1.625.714l-.58.545a1.369,1.369,0,0,0-1.026-.438,1.37,1.37,0,1,0,0,2.739,1.368,1.368,0,0,0,1.026-.436l.58.544a2.09,2.09,0,0,1-1.625.714,2.178,2.178,0,0,1-2.249-2.195" transform="translate(-55.847 -161.428)"/>
            <path id="Path_38011" data-name="Path 38011" d="M163.327,444.073v.732h-.893v3.436h-.874v-3.436h-.75v-.732h.75v-1.561h.874v1.561Z" transform="translate(-58.362 -160.599)"/>
            <path id="Path_38012" data-name="Path 38012" d="M165.808,442.262a.6.6,0,1,1,.6.563.58.58,0,0,1-.6-.563m.161,1.517h.875v4.168h-.875Z" transform="translate(-60.176 -160.304)"/>
            <path id="Path_38013" data-name="Path 38013" d="M169.069,446.982a2.191,2.191,0,1,1,2.186,2.195,2.129,2.129,0,0,1-2.186-2.195m3.507,0a1.318,1.318,0,1,0-1.321,1.374,1.323,1.323,0,0,0,1.321-1.374" transform="translate(-61.36 -161.428)"/>
            <path id="Path_38014" data-name="Path 38014" d="M181.467,446.687v2.383h-.874v-2.329a.973.973,0,0,0-.946-1.089,1.128,1.128,0,0,0-1.2,1.179v2.239h-.875V444.9h.875v.643a1.553,1.553,0,0,1,1.356-.75c1.053,0,1.678.705,1.668,1.892" transform="translate(-64.444 -161.428)"/>
            <path id="Path_38015" data-name="Path 38015" d="M188.809,446.175h.91A1.177,1.177,0,0,0,191,447.21a1.042,1.042,0,0,0,1.16-.973c0-.545-.491-.8-.991-.937l-.785-.2c-1.312-.33-1.526-1.107-1.526-1.616a1.9,1.9,0,0,1,2.044-1.8,1.819,1.819,0,0,1,1.972,1.821h-.91a1,1,0,0,0-1.089-.982,1.02,1.02,0,0,0-1.1.946c0,.2.062.6.839.8l.777.214c1.035.276,1.686.8,1.686,1.7A1.92,1.92,0,0,1,191,448.048a2.012,2.012,0,0,1-2.186-1.874" transform="translate(-68.524 -160.299)"/>
            <path id="Path_38016" data-name="Path 38016" d="M200.011,444.963h.874v4.168h-.874V448.5a1.56,1.56,0,0,1-1.347.74c-1.054,0-1.687-.7-1.678-1.892v-2.383h.875v2.356a.975.975,0,0,0,.945,1.1,1.136,1.136,0,0,0,1.205-1.186Z" transform="translate(-71.491 -161.489)"/>
            <path id="Path_38017" data-name="Path 38017" d="M204.712,446.982a2.171,2.171,0,0,1,2.249-2.187,2.09,2.09,0,0,1,1.625.714l-.58.545a1.369,1.369,0,0,0-1.026-.438,1.37,1.37,0,1,0,0,2.739,1.368,1.368,0,0,0,1.026-.436l.58.544a2.09,2.09,0,0,1-1.625.714,2.178,2.178,0,0,1-2.249-2.195" transform="translate(-74.295 -161.428)"/>
            <path id="Path_38018" data-name="Path 38018" d="M211.685,446.982a2.171,2.171,0,0,1,2.249-2.187,2.09,2.09,0,0,1,1.625.714l-.58.545a1.369,1.369,0,0,0-1.026-.438,1.37,1.37,0,1,0,0,2.739,1.368,1.368,0,0,0,1.026-.436l.58.544a2.09,2.09,0,0,1-1.625.714,2.178,2.178,0,0,1-2.249-2.195" transform="translate(-76.826 -161.428)"/>
            <path id="Path_38019" data-name="Path 38019" d="M222.906,447.338h-3.32a1.194,1.194,0,0,0,1.284,1.027,1.36,1.36,0,0,0,1.179-.607l.7.348a2.186,2.186,0,1,1-1.91-3.311,2.041,2.041,0,0,1,2.088,2.169c0,.115-.009.24-.017.374m-.857-.7a1.138,1.138,0,0,0-1.205-1.026,1.168,1.168,0,0,0-1.249,1.026Z" transform="translate(-79.366 -161.428)"/>
            <path id="Path_38020" data-name="Path 38020" d="M226.468,447.82h.812c0,.331.294.616.767.616s.777-.241.777-.554c0-.276-.222-.42-.535-.491l-.562-.134c-.777-.205-1.134-.606-1.134-1.223a1.352,1.352,0,0,1,1.481-1.24,1.321,1.321,0,0,1,1.482,1.249h-.839a.58.58,0,0,0-.624-.508.564.564,0,0,0-.616.526c0,.259.241.4.5.464l.633.152A1.218,1.218,0,0,1,229.7,447.9c0,.794-.785,1.276-1.642,1.276a1.473,1.473,0,0,1-1.589-1.356" transform="translate(-82.191 -161.428)"/>
            <path id="Path_38021" data-name="Path 38021" d="M232.657,447.82h.812c0,.331.294.616.767.616s.777-.241.777-.554c0-.276-.222-.42-.535-.491l-.562-.134c-.777-.205-1.134-.606-1.134-1.223a1.352,1.352,0,0,1,1.481-1.24,1.321,1.321,0,0,1,1.482,1.249h-.839a.58.58,0,0,0-.624-.508.564.564,0,0,0-.616.526c0,.259.241.4.5.464l.634.152a1.218,1.218,0,0,1,1.089,1.223c0,.794-.785,1.276-1.642,1.276a1.473,1.473,0,0,1-1.589-1.356" transform="translate(-84.437 -161.428)"/>
            <path id="Path_38022" data-name="Path 38022" d="M241.209,442.226c-.723,0-.919.428-.91.955v.491h.955v.732H240.3v3.436h-.875V444.4h-.8v-.732h.8v-.393c0-1.133.491-1.874,1.625-1.874h.464v.821Z" transform="translate(-86.602 -160.197)"/>
            <path id="Path_38023" data-name="Path 38023" d="M246.979,444.963h.874v4.168h-.874V448.5a1.56,1.56,0,0,1-1.347.74c-1.054,0-1.687-.7-1.678-1.892v-2.383h.875v2.356a.975.975,0,0,0,.945,1.1,1.136,1.136,0,0,0,1.205-1.186Z" transform="translate(-88.537 -161.489)"/>
            <rect id="Rectangle_35" data-name="Rectangle 35" width="0.875" height="6.434" transform="translate(160.617 281.208)"/>
            <path id="Path_38024" data-name="Path 38024" d="M184.77,385.637A16.042,16.042,0,1,1,168.729,369.6a16.042,16.042,0,0,1,16.042,16.041" transform="translate(-55.414 -134.136)" fill="#b2efaf"/>
            <path id="Path_38025" data-name="Path 38025" d="M170.8,392.279h0a2.534,2.534,0,0,1-1.79-.749l-6.02-6.02a2.535,2.535,0,1,1,3.491-3.676l.094.094,4.226,4.226,18.859-18.859a2.534,2.534,0,0,1,3.584,3.584L172.59,391.532a2.537,2.537,0,0,1-1.79.749" transform="translate(-58.866 -133.031)" fill="#10a013"/>
            <path id="Path_38026" data-name="Path 38026" d="M321.856,127.938v1.137h-2.481v7.2h-1.247v-7.2h-2.481v-1.137Z" transform="translate(-114.556 -46.432)"/>
            <path id="Path_38027" data-name="Path 38027" d="M324.9,134.892a2.971,2.971,0,1,1,2.966,2.977,2.887,2.887,0,0,1-2.966-2.977m4.757,0a1.787,1.787,0,1,0-1.791,1.864,1.793,1.793,0,0,0,1.791-1.864" transform="translate(-117.914 -47.88)"/>
            <path id="Path_38028" data-name="Path 38028" d="M338.82,130.948v.993h-1.21V136.6h-1.186v-4.659h-1.016v-.993h1.016V128.83h1.186v2.118Z" transform="translate(-121.728 -46.756)"/>
            <path id="Path_38029" data-name="Path 38029" d="M346.529,132.072h1.186v5.652h-1.186v-.956a2.291,2.291,0,0,1-2.01,1.1,2.978,2.978,0,0,1,.048-5.942,2.209,2.209,0,0,1,1.962.992Zm-.013,2.82a1.851,1.851,0,0,0-1.816-1.851,1.862,1.862,0,0,0,.024,3.715,1.835,1.835,0,0,0,1.791-1.864" transform="translate(-124.038 -47.88)"/>
            <rect id="Rectangle_36" data-name="Rectangle 36" width="1.186" height="8.726" transform="translate(225.457 81.118)"/>
            <path id="Path_38030" data-name="Path 38030" d="M367.765,136.277l-.775-2.106h-3.473l-.775,2.106h-1.307l3.159-8.339h1.331l3.147,8.339Zm-3.849-3.2h2.674l-1.331-3.631Z" transform="translate(-131.174 -46.432)"/>
            <path id="Path_38031" data-name="Path 38031" d="M383.732,134.492v3.231h-1.2v-3.171c0-.92-.484-1.488-1.247-1.488-.931-.013-1.416.653-1.416,1.839v2.82h-1.2v-3.171c0-.92-.485-1.488-1.187-1.488A1.459,1.459,0,0,0,376,134.686v3.038h-1.186v-5.652H376v.884a1.891,1.891,0,0,1,1.768-1.028,1.972,1.972,0,0,1,1.851,1.186,2.084,2.084,0,0,1,1.936-1.186c1.416,0,2.179.956,2.179,2.565" transform="translate(-136.029 -47.88)"/>
            <path id="Path_38032" data-name="Path 38032" d="M390.9,134.892a2.971,2.971,0,1,1,2.965,2.977,2.887,2.887,0,0,1-2.965-2.977m4.757,0a1.787,1.787,0,1,0-1.792,1.864,1.794,1.794,0,0,0,1.792-1.864" transform="translate(-141.869 -47.88)"/>
            <path id="Path_38033" data-name="Path 38033" d="M406.427,132.154h1.186v5.652h-1.186v-.859a2.113,2.113,0,0,1-1.827,1c-1.428,0-2.288-.956-2.276-2.566v-3.231h1.186v3.2a1.323,1.323,0,0,0,1.283,1.489,1.541,1.541,0,0,0,1.633-1.611Z" transform="translate(-146.014 -47.962)"/>
            <path id="Path_38034" data-name="Path 38034" d="M418.69,134.492v3.231H417.5v-3.159a1.318,1.318,0,0,0-1.282-1.477,1.53,1.53,0,0,0-1.634,1.6v3.038H413.4v-5.652h1.186v.872a2.105,2.105,0,0,1,1.839-1.016c1.428,0,2.276.956,2.264,2.565" transform="translate(-150.034 -47.88)"/>
            <path id="Path_38035" data-name="Path 38035" d="M426.808,130.948v.993H425.6V136.6h-1.186v-4.659H423.4v-.993h1.016V128.83H425.6v2.118Z" transform="translate(-153.661 -46.756)"/>
            <path id="Path_38036" data-name="Path 38036" d="M296.938,162.588q.454.029.941.029a6.223,6.223,0,0,0,.954-.073,4.363,4.363,0,0,0,.892-.236,2.607,2.607,0,0,0,.761-.454,2.264,2.264,0,0,0,.555-.728,3.014,3.014,0,0,0,.275-1.056h-4.793a2.993,2.993,0,0,1,.159-.285q.129-.217.275-.458c.116-.187.244-.389.386-.607h3.731a.748.748,0,0,0-.241-.506,2.619,2.619,0,0,0-.583-.458,4.085,4.085,0,0,0-.7-.333,1.79,1.79,0,0,0-.588-.131h-2.44a2.3,2.3,0,0,1,.168-.347q.131-.232.275-.459l.255-.4a.991.991,0,0,1,.121-.174h8.032c-.071.141-.135.262-.193.362s-.122.209-.192.327l-.2.333c-.061.1-.133.222-.217.357h-2.111a6.408,6.408,0,0,1,.352.7,2.509,2.509,0,0,1,.187.729h2.372l-.8,1.35h-1.484a3.847,3.847,0,0,1-.506,1.533,3.716,3.716,0,0,1-.955,1.056,4.344,4.344,0,0,1-1.258.647,7.448,7.448,0,0,1-1.428.313.234.234,0,0,0,.034.062c.022.035.05.076.082.12s.071.106.116.164l4.281,5.911v.241h-1.832l-4.687-6.258Z" transform="translate(-107.616 -56.586)" fill="#023677"/>
            <path id="Path_38037" data-name="Path 38037" d="M318.14,170.338v-3.375h-6.056v-1.7l6.326-8.776h1.466v8.959h2.034v1.514h-2.034v3.375Zm-.029-4.889v-6.273l-4.426,6.273Z" transform="translate(-113.263 -56.794)" fill="#023677"/>
            <path id="Path_38038" data-name="Path 38038" d="M338.108,158.76a9.873,9.873,0,0,1,.926,4.676,11.275,11.275,0,0,1-.838,4.658,4.107,4.107,0,0,1-3.973,2.641,3.979,3.979,0,0,1-3.7-2.16,9.887,9.887,0,0,1-1.013-4.84,11.989,11.989,0,0,1,.607-4.041,4.158,4.158,0,0,1,4.118-3.143,4.079,4.079,0,0,1,3.877,2.209m-1.747,9.2q.8-1.2.8-4.454a11,11,0,0,0-.58-3.872,2.206,2.206,0,0,0-2.251-1.519,2.354,2.354,0,0,0-2.246,1.442,9.939,9.939,0,0,0-.71,4.248,10.4,10.4,0,0,0,.454,3.394,2.468,2.468,0,0,0,4.53.761" transform="translate(-119.586 -56.816)" fill="#023677"/>
            <path id="Path_38039" data-name="Path 38039" d="M348.352,179.054a1.218,1.218,0,0,0,.935-.94,2.658,2.658,0,0,0,.145-.843c0-.045,0-.085-.005-.12a.591.591,0,0,0-.024-.122h-1.051v-2.1h2.063v1.948a4.222,4.222,0,0,1-.463,2.016,2.111,2.111,0,0,1-1.6,1.07Z" transform="translate(-126.426 -63.485)" fill="#023677"/>
            <path id="Path_38040" data-name="Path 38040" d="M356.237,169.379a4.988,4.988,0,0,1-1.1-3.274h1.812a4.484,4.484,0,0,0,.5,1.948,2.635,2.635,0,0,0,2.439,1.089,3.2,3.2,0,0,0,2.2-.733,2.408,2.408,0,0,0,.829-1.89,2.2,2.2,0,0,0-.873-2,4.411,4.411,0,0,0-2.425-.569c-.116,0-.234,0-.353,0s-.24.008-.361.015v-1.533q.27.03.453.039c.122.006.254.01.4.01a3.633,3.633,0,0,0,1.6-.309,1.96,1.96,0,0,0,1.1-1.928,1.884,1.884,0,0,0-.733-1.591,2.734,2.734,0,0,0-1.706-.559,2.531,2.531,0,0,0-2.4,1.157,4.011,4.011,0,0,0-.415,1.813H355.48a5.208,5.208,0,0,1,.617-2.623,3.892,3.892,0,0,1,3.732-1.929,5.059,5.059,0,0,1,3.269.94,3.308,3.308,0,0,1,1.158,2.724,3.043,3.043,0,0,1-.684,2.064,2.9,2.9,0,0,1-1.1.771,3,3,0,0,1,1.7,1.152,3.484,3.484,0,0,1,.612,2.088,4.255,4.255,0,0,1-1.3,3.22,5.133,5.133,0,0,1-3.694,1.244,4.337,4.337,0,0,1-3.553-1.345" transform="translate(-128.887 -56.805)" fill="#023677"/>
            <path id="Path_38041" data-name="Path 38041" d="M374.656,167a2.194,2.194,0,0,0,1.109,1.986,2.459,2.459,0,0,0,1.2.29,2.685,2.685,0,0,0,2.121-1.037q.878-1.036,1.245-4.209a3.224,3.224,0,0,1-1.432,1.288,4.548,4.548,0,0,1-1.837.371,4.113,4.113,0,0,1-3.159-1.243,4.5,4.5,0,0,1-1.162-3.2,5.114,5.114,0,0,1,1.147-3.3,4.088,4.088,0,0,1,3.385-1.426,4.162,4.162,0,0,1,4.166,2.718,9.577,9.577,0,0,1,.637,3.739,12.327,12.327,0,0,1-.762,4.491q-1.264,3.258-4.282,3.257a4.147,4.147,0,0,1-3.076-1.06A3.627,3.627,0,0,1,372.9,167Zm4.518-3.515a2.872,2.872,0,0,0,.854-2.373,3.035,3.035,0,0,0-.767-2.267,2.685,2.685,0,0,0-1.953-.746,2.551,2.551,0,0,0-2.02.852,3.329,3.329,0,0,0-.747,2.277,3.259,3.259,0,0,0,.656,2.142,2.562,2.562,0,0,0,2.093.794,2.958,2.958,0,0,0,1.885-.678" transform="translate(-135.276 -56.805)" fill="#023677"/>
            <path id="Path_38042" data-name="Path 38042" d="M391.9,167a2.194,2.194,0,0,0,1.108,1.986,2.459,2.459,0,0,0,1.2.29,2.685,2.685,0,0,0,2.121-1.037q.878-1.036,1.245-4.209a3.223,3.223,0,0,1-1.432,1.288,4.549,4.549,0,0,1-1.837.371,4.113,4.113,0,0,1-3.159-1.243,4.5,4.5,0,0,1-1.162-3.2,5.114,5.114,0,0,1,1.147-3.3,4.088,4.088,0,0,1,3.385-1.426,4.162,4.162,0,0,1,4.166,2.718,9.577,9.577,0,0,1,.637,3.739,12.328,12.328,0,0,1-.762,4.491q-1.264,3.258-4.282,3.257a4.147,4.147,0,0,1-3.076-1.06A3.627,3.627,0,0,1,390.142,167Zm4.518-3.515a2.872,2.872,0,0,0,.854-2.373,3.035,3.035,0,0,0-.767-2.267,2.685,2.685,0,0,0-1.953-.746,2.551,2.551,0,0,0-2.02.852,3.329,3.329,0,0,0-.747,2.277,3.259,3.259,0,0,0,.656,2.142,2.562,2.562,0,0,0,2.093.794,2.957,2.957,0,0,0,1.885-.678" transform="translate(-141.533 -56.805)" fill="#023677"/>
            <rect id="Rectangle_37" data-name="Rectangle 37" width="2.016" height="2.102" transform="translate(260.412 111.441)" fill="#023677"/>
            <path id="Path_38043" data-name="Path 38043" d="M424.3,158.76a9.872,9.872,0,0,1,.926,4.676,11.276,11.276,0,0,1-.838,4.658,4.107,4.107,0,0,1-3.973,2.641,3.979,3.979,0,0,1-3.7-2.16,9.887,9.887,0,0,1-1.013-4.84,11.99,11.99,0,0,1,.607-4.041,4.158,4.158,0,0,1,4.118-3.143,4.079,4.079,0,0,1,3.877,2.209m-1.747,9.2q.8-1.2.8-4.454a11,11,0,0,0-.58-3.872,2.206,2.206,0,0,0-2.251-1.519,2.354,2.354,0,0,0-2.246,1.442,9.939,9.939,0,0,0-.71,4.248,10.4,10.4,0,0,0,.454,3.394,2.468,2.468,0,0,0,4.53.761" transform="translate(-150.866 -56.816)" fill="#023677"/>
            <path id="Path_38044" data-name="Path 38044" d="M441.538,158.76a9.872,9.872,0,0,1,.926,4.676,11.276,11.276,0,0,1-.838,4.658,4.107,4.107,0,0,1-3.973,2.641,3.979,3.979,0,0,1-3.7-2.16,9.887,9.887,0,0,1-1.013-4.84,11.991,11.991,0,0,1,.607-4.041,4.158,4.158,0,0,1,4.118-3.143,4.079,4.079,0,0,1,3.877,2.209m-1.747,9.2q.8-1.2.8-4.454a11,11,0,0,0-.58-3.872,2.206,2.206,0,0,0-2.251-1.519,2.354,2.354,0,0,0-2.246,1.442,9.938,9.938,0,0,0-.71,4.248,10.4,10.4,0,0,0,.454,3.394,2.468,2.468,0,0,0,4.53.761" transform="translate(-157.124 -56.816)" fill="#023677"/>
            <path id="Path_38045" data-name="Path 38045" d="M373.426,382.98a1.841,1.841,0,0,1,0-3.682h3.538v-2.881a1.088,1.088,0,0,0-1.087-1.087h-14.2a1.088,1.088,0,0,0-1.087,1.087v9.448a1.088,1.088,0,0,0,1.087,1.087h14.2a1.088,1.088,0,0,0,1.087-1.087V382.98Z" transform="translate(-130.866 -136.217)" fill="#fff"/>
            <path id="Path_38046" data-name="Path 38046" d="M380.622,383.049a.893.893,0,0,0,0,1.785h3.3v-1.785Zm-.059,1.254a.338.338,0,1,1,.338-.338.339.339,0,0,1-.338.338Z" transform="translate(-137.819 -139.018)" fill="#fff"/>
            <path id="Path_38047" data-name="Path 38047" d="M320.7,385.456l3.218-2.935-1.525-3.037Z" transform="translate(-116.391 -137.725)" fill="#357540" fill-rule="evenodd"/>
            <path id="Path_38048" data-name="Path 38048" d="M319,385.456l3.218-2.935-1.525-3.037Z" transform="translate(-115.774 -137.725)" fill="#dc7a41" fill-rule="evenodd"/>
            <path id="Path_38049" data-name="Path 38049" d="M293.273,379.5l-1.355,4.825,4.81.034,1.321-4.859h1.219l-1.583,5.648a.567.567,0,0,1-.516.39H291a.486.486,0,0,1-.522-.447.494.494,0,0,1,.028-.2l1.511-5.388Zm14.868-.034h1.219l-1.693,6.072h-1.254ZM299.4,382l6.1-.034.406-1.282h-6.2l.373-1.18,6.605-.061a.533.533,0,0,1,.548.712l-.622,2.274a1.031,1.031,0,0,1-.942.718h-5.453l-.643,2.5h-1.186Z" transform="translate(-105.423 -137.708)" fill="#fff" fill-rule="evenodd"/>
            <path id="Path_38050" data-name="Path 38050" d="M298.767,313.784h3.116v3.1h-3.116Zm1.11-3.306h-1.556a2.812,2.812,0,0,0-1.084.216,2.846,2.846,0,0,0-1.542,1.543,2.811,2.811,0,0,0-.224,1.09v1.923h1.264v-1.923a1.592,1.592,0,0,1,.122-.605,1.578,1.578,0,0,1,1.463-.978h1.556Zm7.889,0h-1.017v1.263h1.017a1.6,1.6,0,0,1,.605.123,1.624,1.624,0,0,1,.515.342l.043.045a1.6,1.6,0,0,1,.3.471,1.561,1.561,0,0,1,.123.6v1.924h1.265v-1.923a2.837,2.837,0,0,0-.793-1.967l-.046-.046a2.872,2.872,0,0,0-.924-.617,2.818,2.818,0,0,0-1.089-.219Zm2.848,12.327v-2.135h-1.263V322.8a1.563,1.563,0,0,1-.123.6,1.619,1.619,0,0,1-.345.515,1.582,1.582,0,0,1-1.119.467h-1.015v1.263h1.017a2.841,2.841,0,0,0,2.012-.838,2.894,2.894,0,0,0,.617-.925,2.842,2.842,0,0,0,.216-1.087Zm-12.293,2.849h1.556V324.39h-1.556a1.584,1.584,0,0,1-1.121-.467l-.033-.029a1.6,1.6,0,0,1-.322-.5,1.562,1.562,0,0,1-.112-.586v-2.135h-1.262V322.8a2.791,2.791,0,0,0,.206,1.058,2.844,2.844,0,0,0,.591.912l.038.043a2.87,2.87,0,0,0,.926.617,2.818,2.818,0,0,0,1.087.216Zm8.216-4.087h.791v.782h-.792Zm-1.526,0h.8v.741h-1.59v-1.521h.766v-.772h.783v-1.539h.8v.756h.756v.782h-.756v.782h-1.553v.77ZM302.652,320h.77v-.781h-.741v-.782h.741v-.782h-.756v.782h-.8v-.782h.782v-2.322h.794v2.321h.77v.782h.756v-.782h.794v.782h-.756v.782h-.793v1.539h-.769v1.553h-.794Zm3.872-2.346h.794v.782h-.794Zm-6.2,0h.793v.782h-.793Zm-1.553,0h.794v.782h-.794v-.782Zm3.886-3.872h.794v.781h-.794Zm-3.9,5.448h3.114v3.1h-3.114Zm.756.756h1.605v1.595h-1.6Zm4.694-6.2h3.113v3.1H304.2v-3.1Zm.756.753h1.605v1.594h-1.6v-1.6Zm-5.434,0h1.606v1.594h-1.6v-1.6Z" transform="translate(-107.234 -112.681)" fill="#fff" fill-rule="evenodd"/>
            <path id="Path_38051" data-name="Path 38051" d="M283.529,343.448h.517a.815.815,0,0,0,.877.705.72.72,0,0,0,.8-.682c0-.384-.35-.556-.682-.642l-.511-.126c-.837-.2-.969-.694-.969-1.016a1.214,1.214,0,0,1,1.3-1.141,1.156,1.156,0,0,1,1.251,1.147h-.517a.689.689,0,0,0-.751-.665.711.711,0,0,0-.763.654c0,.137.047.413.574.55l.516.138c.671.178,1.073.522,1.073,1.084a1.224,1.224,0,0,1-1.319,1.181,1.3,1.3,0,0,1-1.394-1.187" transform="translate(-102.9 -123.593)" fill="#fff"/>
            <path id="Path_38052" data-name="Path 38052" d="M288.578,343.949a1.393,1.393,0,0,1,1.439-1.405,1.378,1.378,0,0,1,1.021.424l-.316.327a.941.941,0,0,0-.687-.282.938.938,0,1,0,0,1.876.941.941,0,0,0,.687-.282l.316.327a1.353,1.353,0,0,1-1.021.425,1.4,1.4,0,0,1-1.439-1.411" transform="translate(-104.732 -124.318)" fill="#fff"/>
            <path id="Path_38053" data-name="Path 38053" d="M295.327,342.613h.5v2.678h-.5v-.476a1.114,1.114,0,0,1-.98.545,1.411,1.411,0,0,1,.023-2.817,1.076,1.076,0,0,1,.958.488Zm0,1.337a.938.938,0,0,0-.912-.935.94.94,0,0,0,.006,1.876.924.924,0,0,0,.906-.941" transform="translate(-106.349 -124.318)" fill="#fff"/>
            <path id="Path_38054" data-name="Path 38054" d="M301.251,343.743v1.549h-.5v-1.52a.662.662,0,0,0-.649-.734.774.774,0,0,0-.82.8v1.451h-.5v-2.678h.5v.406a1.034,1.034,0,0,1,.889-.476,1.052,1.052,0,0,1,1.078,1.2" transform="translate(-108.437 -124.318)" fill="#fff"/>
            <path id="Path_38055" data-name="Path 38055" d="M307.363,342.077v.43h-.579v2.248h-.5v-2.248H305.8v-.43h.482v-1.01h.5v1.01Z" transform="translate(-110.984 -123.782)" fill="#fff"/>
            <path id="Path_38056" data-name="Path 38056" d="M308.747,343.949a1.4,1.4,0,1,1,1.4,1.411,1.363,1.363,0,0,1-1.4-1.411m2.306,0a.9.9,0,1,0-.907.941.9.9,0,0,0,.907-.941" transform="translate(-112.052 -124.318)" fill="#fff"/>
            <path id="Path_38057" data-name="Path 38057" d="M318.266,340.654a1.234,1.234,0,0,1,0,2.466h-1.05v1.486h-.522v-3.952Zm-.034,1.979a.753.753,0,0,0,.029-1.5h-1.044v1.5Z" transform="translate(-114.936 -123.632)" fill="#fff"/>
            <path id="Path_38058" data-name="Path 38058" d="M323.838,342.613h.5v2.678h-.5v-.476a1.114,1.114,0,0,1-.98.545,1.411,1.411,0,0,1,.023-2.817,1.075,1.075,0,0,1,.957.488Zm0,1.337a.938.938,0,0,0-.912-.935.94.94,0,0,0,.006,1.876.924.924,0,0,0,.906-.941" transform="translate(-116.697 -124.318)" fill="#fff"/>
            <path id="Path_38059" data-name="Path 38059" d="M328.932,342.652h.54l-1.663,3.98h-.528l.563-1.382-1.078-2.6h.538l.809,1.973Z" transform="translate(-118.591 -124.357)" fill="#fff"/>
            <path id="Path_38060" data-name="Path 38060" d="M361.628,341.649a2.035,2.035,0,0,1,2.007-2.053,1.928,1.928,0,0,1,1.486.672l-.378.322a1.459,1.459,0,0,0-1.107-.511,1.565,1.565,0,0,0,0,3.125,1.458,1.458,0,0,0,1.107-.51l.378.321a1.924,1.924,0,0,1-1.486.671,2.02,2.02,0,0,1-2.007-2.037" transform="translate(-131.244 -123.248)" fill="#fff"/>
            <path id="Path_38061" data-name="Path 38061" d="M370.043,341.664h.5v2.678h-.5v-.476a1.114,1.114,0,0,1-.981.545,1.411,1.411,0,0,1,.023-2.816,1.076,1.076,0,0,1,.958.488Zm0,1.337a.938.938,0,0,0-.912-.935.94.94,0,0,0,.006,1.876.924.924,0,0,0,.906-.941" transform="translate(-133.466 -123.974)" fill="#fff"/>
            <path id="Path_38062" data-name="Path 38062" d="M375.221,341.7l-.081.47a.925.925,0,0,0-.39-.091c-.533,0-.745.579-.745,1.284v.98h-.5v-2.678h.5v.608c.138-.47.4-.677.751-.677a1.016,1.016,0,0,1,.465.1" transform="translate(-135.553 -123.974)" fill="#fff"/>
            <path id="Path_38063" data-name="Path 38063" d="M378.853,339.416h.5v4.135h-.5v-.419a1.111,1.111,0,0,1-.952.488,1.41,1.41,0,0,1-.006-2.817,1.076,1.076,0,0,1,.958.487Zm0,2.788a.917.917,0,0,0-.912-.929.887.887,0,0,0-.878.929.9.9,0,1,0,1.79,0" transform="translate(-136.663 -123.183)" fill="#fff"/>
            <path id="Path_38064" data-name="Path 38064" d="M381.978,343.557h.464c.005.229.206.419.533.419s.539-.166.539-.384c0-.2-.155-.3-.367-.35l-.367-.086c-.447-.12-.706-.338-.706-.769a.84.84,0,0,1,.918-.791.823.823,0,0,1,.923.78h-.482a.4.4,0,0,0-.43-.345.392.392,0,0,0-.43.373c0,.184.172.282.344.321l.4.1c.556.137.7.47.7.774,0,.5-.482.815-1.038.815a.937.937,0,0,1-1-.855" transform="translate(-138.63 -123.974)" fill="#fff"/>
            <path id="Path_38065" data-name="Path 38065" d="M373.9,324.055H360.284a2.408,2.408,0,0,1-2.408-2.408v-7.812a2.408,2.408,0,0,1,2.408-2.408H373.9a2.408,2.408,0,0,1,2.408,2.408v7.812a2.408,2.408,0,0,1-2.408,2.408" transform="translate(-129.882 -113.025)" fill="#fff"/>
            <rect id="Rectangle_38" data-name="Rectangle 38" width="18.45" height="2.096" transform="translate(227.987 201.266)" fill="#d3d3d3"/>
            <path id="Path_38066" data-name="Path 38066" d="M361.61,326.308h-.675a.519.519,0,0,1-.519-.519v-.661a.519.519,0,0,1,.519-.519h.675a.519.519,0,0,1,.519.519v.661a.519.519,0,0,1-.519.519" transform="translate(-130.805 -117.809)" fill="#d3d3d3"/>
            <path id="Path_38067" data-name="Path 38067" d="M427.3,404.913a2.034,2.034,0,0,1,2.007-2.053,1.927,1.927,0,0,1,1.486.671l-.378.322a1.459,1.459,0,0,0-1.107-.511,1.565,1.565,0,0,0,0,3.125,1.458,1.458,0,0,0,1.107-.51l.378.321a1.925,1.925,0,0,1-1.486.671,2.02,2.02,0,0,1-2.007-2.036" transform="translate(-155.078 -146.208)" fill="#fff"/>
            <path id="Path_38068" data-name="Path 38068" d="M435.714,404.928h.5v2.678h-.5v-.476a1.114,1.114,0,0,1-.98.545,1.411,1.411,0,0,1,.023-2.817,1.075,1.075,0,0,1,.958.488Zm0,1.337a.938.938,0,0,0-.912-.935.94.94,0,0,0,.006,1.876.924.924,0,0,0,.906-.941" transform="translate(-157.299 -146.934)" fill="#fff"/>
            <path id="Path_38069" data-name="Path 38069" d="M440.891,404.962l-.08.47a.925.925,0,0,0-.39-.091c-.533,0-.745.579-.745,1.284v.98h-.5v-2.678h.5v.608c.138-.47.4-.677.751-.677a1.011,1.011,0,0,1,.464.1" transform="translate(-159.386 -146.934)" fill="#fff"/>
            <path id="Path_38070" data-name="Path 38070" d="M444.524,402.68h.5v4.135h-.5V406.4a1.111,1.111,0,0,1-.952.488,1.41,1.41,0,0,1-.006-2.817,1.076,1.076,0,0,1,.958.487Zm0,2.788a.917.917,0,0,0-.912-.93.887.887,0,0,0-.878.93.9.9,0,1,0,1.79,0" transform="translate(-160.497 -146.143)" fill="#fff"/>
            <path id="Path_38071" data-name="Path 38071" d="M447.649,406.821h.464c.005.229.206.419.533.419s.539-.166.539-.384c0-.2-.155-.3-.367-.35l-.367-.086c-.447-.12-.706-.338-.706-.769a.84.84,0,0,1,.918-.791.823.823,0,0,1,.923.78h-.482a.4.4,0,0,0-.43-.345.392.392,0,0,0-.43.373c0,.184.172.282.344.321l.4.1c.556.137.7.47.7.774,0,.5-.482.815-1.038.815a.937.937,0,0,1-1-.855" transform="translate(-162.463 -146.934)" fill="#fff"/>
            <path id="Path_38072" data-name="Path 38072" d="M439.577,387.319H425.956a2.408,2.408,0,0,1-2.408-2.408V377.1a2.408,2.408,0,0,1,2.408-2.408h13.621a2.408,2.408,0,0,1,2.408,2.408v7.812a2.408,2.408,0,0,1-2.408,2.408" transform="translate(-153.717 -135.985)" fill="#fff"/>
            <rect id="Rectangle_39" data-name="Rectangle 39" width="18.45" height="2.096" transform="translate(269.824 241.57)" fill="#d3d3d3"/>
            <path id="Path_38073" data-name="Path 38073" d="M427.282,389.572h-.675a.519.519,0,0,1-.519-.519v-.661a.519.519,0,0,1,.519-.519h.675a.519.519,0,0,1,.519.519v.661a.519.519,0,0,1-.519.519" transform="translate(-154.639 -140.769)" fill="#d3d3d3"/>
            <path id="Path_38074" data-name="Path 38074" d="M415.938,340.62h.522v3.952h-.505l-1.823-3.011v3.011h-.522V340.62h.516l1.812,3Z" transform="translate(-150.11 -123.62)" fill="#fff"/>
            <path id="Path_38075" data-name="Path 38075" d="M421.939,344.135H419.76a.819.819,0,0,0,.877.723.879.879,0,0,0,.78-.42l.43.172a1.336,1.336,0,0,1-1.228.718,1.356,1.356,0,0,1-1.376-1.418,1.341,1.341,0,0,1,1.376-1.4,1.305,1.305,0,0,1,1.331,1.4c0,.075-.006.15-.011.224m-.488-.431a.853.853,0,0,0-1.686,0Z" transform="translate(-152.154 -124.306)" fill="#fff"/>
            <path id="Path_38076" data-name="Path 38076" d="M425.628,342.045v.429h-.579v2.248h-.5v-2.248h-.482v-.429h.482v-1.01h.5v1.01Z" transform="translate(-153.905 -123.77)" fill="#fff"/>
            <path id="Path_38077" data-name="Path 38077" d="M432.6,343.459a1.108,1.108,0,0,1-1.152,1.112h-1.611V340.62h1.486a.968.968,0,0,1,1.066,1.01.828.828,0,0,1-.5.837.979.979,0,0,1,.711.992m-1.284-2.357h-.958v1.163h.975a.583.583,0,0,0-.017-1.163m.023,2.987a.684.684,0,1,0,.029-1.365H430.36v1.365Z" transform="translate(-155.999 -123.62)" fill="#fff"/>
            <path id="Path_38078" data-name="Path 38078" d="M437.323,342.58h.5v2.678h-.5v-.475a1.115,1.115,0,0,1-.98.545,1.411,1.411,0,0,1,.023-2.817,1.077,1.077,0,0,1,.958.488Zm0,1.337a.938.938,0,0,0-.912-.936.94.94,0,0,0,.006,1.877.924.924,0,0,0,.906-.941" transform="translate(-157.883 -124.306)" fill="#fff"/>
            <path id="Path_38079" data-name="Path 38079" d="M443.247,343.711v1.548h-.5v-1.519a.662.662,0,0,0-.649-.734.773.773,0,0,0-.82.8v1.451h-.5v-2.678h.5v.406a1.033,1.033,0,0,1,.889-.477,1.052,1.052,0,0,1,1.078,1.2" transform="translate(-159.971 -124.306)" fill="#fff"/>
            <path id="Path_38080" data-name="Path 38080" d="M448.359,344.468h-.671l-1.233-1.308v1.308h-.5v-4.135h.5v2.4l.929-.945h.694l-1.147,1.158Z" transform="translate(-161.849 -123.516)" fill="#fff"/>
            <path id="Path_38081" data-name="Path 38081" d="M450.168,340.882a.354.354,0,1,1,.35.333.34.34,0,0,1-.35-.333m.1.987h.5v2.678h-.5Z" transform="translate(-163.378 -123.594)" fill="#fff"/>
            <path id="Path_38082" data-name="Path 38082" d="M454.938,343.711v1.548h-.5v-1.519a.662.662,0,0,0-.649-.734.773.773,0,0,0-.82.8v1.451h-.5v-2.678h.5v.406a1.033,1.033,0,0,1,.889-.477,1.052,1.052,0,0,1,1.078,1.2" transform="translate(-164.214 -124.306)" fill="#fff"/>
            <path id="Path_38083" data-name="Path 38083" d="M459.661,342.58h.5v2.306c0,1.267-.573,1.744-1.456,1.744a1.36,1.36,0,0,1-1.2-.717l.424-.224a.9.9,0,0,0,.78.47c.591,0,.957-.332.957-1.239v-.08a1.113,1.113,0,0,1-.952.488,1.41,1.41,0,0,1-.006-2.817,1.088,1.088,0,0,1,.957.487Zm0,1.33a.918.918,0,0,0-.912-.929.887.887,0,0,0-.878.929.9.9,0,1,0,1.79,0" transform="translate(-165.99 -124.306)" fill="#fff"/>
            <path id="Path_38084" data-name="Path 38084" d="M423.454,316.339l8.22-5.829,8.258,5.829Zm15.648,3.041a2.807,2.807,0,0,1,2.47,2.779v2.371a2.8,2.8,0,0,1-5.6.15c0-.05,0-.1,0-.15v-2.372a2.8,2.8,0,0,1,2.467-2.778v-1.547a.331.331,0,1,1,.663,0v1.547Zm1.18,1.269a2.135,2.135,0,0,0-3.646,1.506v2.375a2.137,2.137,0,0,0,4.275,0v-2.372a2.129,2.129,0,0,0-.628-1.506Zm-1.541.9h0a.533.533,0,0,1,.531.531v.55a.532.532,0,0,1-1.065-.005v-.552a.533.533,0,0,1,.533-.532Zm-15.679,3.29h.957v-.886h.5v-.423h.539v-5.079h-1.1V317.24h13.5a1.425,1.425,0,0,0-.129.594v.694c-.089.036-.178.075-.264.117a3.941,3.941,0,0,0-.812.529v-.719h-1.7v5.077h.312v1a3.865,3.865,0,0,0,.2,1.242h-12Zm4.567-.886h.622v-.423h.535v-5.079h-1.7v5.077h.54v.423Zm3.733,0h.624v-.423h.538v-5.079h-1.7v5.077h.54v.423ZM428.9,314.87l2.781-2.133,2.8,2.133Z" transform="translate(-153.54 -112.692)" fill="#fff" fill-rule="evenodd"/>
            <path id="Path_38085" data-name="Path 38085" d="M299.258,403.761v-2.6h.522v2.6a.918.918,0,0,0,1.835,0v-2.6h.522v2.6a1.44,1.44,0,0,1-2.88,0" transform="translate(-108.608 -145.59)" fill="#fff"/>
            <path id="Path_38086" data-name="Path 38086" d="M307,401.158a1.234,1.234,0,0,1,0,2.466h-1.05v1.486h-.522v-3.952Zm-.034,1.979a.753.753,0,0,0,.029-1.5h-1.044v1.5Z" transform="translate(-110.849 -145.591)" fill="#fff"/>
            <rect id="Rectangle_40" data-name="Rectangle 40" width="0.522" height="3.952" transform="translate(198.08 255.567)" fill="#fff"/>
            <path id="Path_38087" data-name="Path 38087" d="M365.087,401.157h.556l-1.337,3.952h-.453l-.711-2.495-.705,2.495h-.454l-1.337-3.952h.557l1.009,3.126.735-2.586h.4l.74,2.575Z" transform="translate(-130.888 -145.59)" fill="#fff"/>
            <path id="Path_38088" data-name="Path 38088" d="M370.9,403.117h.5V405.8h-.5v-.476a1.114,1.114,0,0,1-.98.545,1.411,1.411,0,0,1,.023-2.817,1.076,1.076,0,0,1,.958.488Zm0,1.337a.938.938,0,0,0-.912-.935.94.94,0,0,0,.006,1.876.924.924,0,0,0,.906-.941" transform="translate(-133.776 -146.277)" fill="#fff"/>
            <rect id="Rectangle_41" data-name="Rectangle 41" width="0.499" height="4.135" transform="translate(238.493 255.383)" fill="#fff"/>
            <rect id="Rectangle_42" data-name="Rectangle 42" width="0.499" height="4.135" transform="translate(239.856 255.383)" fill="#fff"/>
            <path id="Path_38089" data-name="Path 38089" d="M381.056,404.671h-2.179a.819.819,0,0,0,.877.723.88.88,0,0,0,.78-.419l.43.172a1.337,1.337,0,0,1-1.228.717,1.355,1.355,0,0,1-1.375-1.417,1.34,1.34,0,0,1,1.375-1.4,1.3,1.3,0,0,1,1.331,1.4c0,.074-.006.149-.011.224m-.487-.43a.853.853,0,0,0-1.686,0Z" transform="translate(-137.317 -146.277)" fill="#fff"/>
            <path id="Path_38090" data-name="Path 38090" d="M384.744,402.581v.43h-.579v2.248h-.5v-2.248h-.482v-.43h.482v-1.01h.5v1.01Z" transform="translate(-139.067 -145.741)" fill="#fff"/>
            <path id="Path_38091" data-name="Path 38091" d="M387.4,551.784H285.3a8.526,8.526,0,0,1-8.527-8.527V534.9a8.526,8.526,0,0,1,8.527-8.527H387.4a8.526,8.526,0,0,1,8.527,8.527v8.355a8.526,8.526,0,0,1-8.527,8.527" transform="translate(-100.448 -191.035)" fill="#fff"/>
            <path id="Path_38092" data-name="Path 38092" d="M329.661,537.286a3.457,3.457,0,0,1,0,6.911h-2.755v4.06h-1.64V537.286Zm-.095,5.414a1.969,1.969,0,0,0,.064-3.917h-2.724V542.7Z" transform="translate(-118.047 -194.995)" fill="#023677"/>
            <path id="Path_38093" data-name="Path 38093" d="M345.074,542.726h1.561v7.436h-1.561V548.9a3.012,3.012,0,0,1-2.643,1.448,3.918,3.918,0,0,1,.064-7.818,2.9,2.9,0,0,1,2.579,1.305Zm-.016,3.709A2.436,2.436,0,0,0,342.67,544a2.45,2.45,0,0,0,.032,4.889,2.415,2.415,0,0,0,2.357-2.453" transform="translate(-122.965 -196.9)" fill="#023677"/>
            <path id="Path_38094" data-name="Path 38094" d="M359.246,542.835h1.688l-4.618,11.051h-1.656l1.608-3.95-2.978-7.1h1.688l2.134,5.175Z" transform="translate(-128.218 -197.009)" fill="#023677"/>
            <path id="Path_38095" data-name="Path 38095" d="M380.378,537.286h1.64v10.971h-1.545l-4.793-7.993v7.993h-1.64V537.286h1.593l4.745,7.93Z" transform="translate(-135.749 -194.995)" fill="#023677"/>
            <path id="Path_38096" data-name="Path 38096" d="M389.692,546.435a3.909,3.909,0,1,1,3.9,3.917,3.8,3.8,0,0,1-3.9-3.917m6.257,0a2.351,2.351,0,1,0-2.357,2.453,2.361,2.361,0,0,0,2.357-2.453" transform="translate(-141.429 -196.9)" fill="#023677"/>
            <path id="Path_38097" data-name="Path 38097" d="M413.371,542.835h1.688l-2.723,7.436h-1.321l-1.927-5.334-1.862,5.334h-1.29l-2.818-7.436H404.8l1.784,5.079,1.767-5.079h1.465l1.784,5.079Z" transform="translate(-146.301 -197.009)" fill="#023677"/>
            <path id="Path_38098" data-name="Path 38098" d="M603.968,477.277s-42.258,2.566-43.289-1.8,6.1-23.159,12.541-39.711,1.03-32.335-5.411-44.46-6.552-23.884,1.178-31,34.639-6.533,34.639-6.533,27.311-1.54,35.042,5.581,7.214,19.816.773,31.95-11.853,27.908-5.411,44.46,13.571,35.349,12.541,39.711-43.29,1.8-43.29,1.8Z" transform="translate(-203.449 -128.342)" fill="#f2bc97"/>
            <path id="Path_38099" data-name="Path 38099" d="M674.147,359.093a7.529,7.529,0,0,1,6.132,4.66c4.778,11.184,20.163,48.9,12.053,52.576-9.527,4.323-21.16-29.842-23.246-40.1-1.742-8.545-1.555-17.66,5.065-17.138" transform="translate(-242.49 -130.316)" fill="#f2bc97"/>
            <path id="Path_38100" data-name="Path 38100" d="M696.961,424.74s2.759,7.621,2.281,10.751-11.8,31.68-11.8,31.68l-9.515-3.392s8.025-26.567,7.961-27.3-2.252-6.659-2.252-6.659Z" transform="translate(-246.038 -154.149)" fill="#f2bc97"/>
            <path id="Path_38101" data-name="Path 38101" d="M548.566,424.74s-2.759,7.621-2.282,10.751,11.8,31.68,11.8,31.68l9.514-3.392s-8.025-26.567-7.962-27.3,2.251-6.659,2.251-6.659Z" transform="translate(-198.241 -154.149)" fill="#f2bc97"/>
            <path id="Path_38102" data-name="Path 38102" d="M555.114,432.672a7.428,7.428,0,0,1,5.29,4.972c3.956,11.334,17.743,51.844,13.926,55.359-4.445,4.089-26.038-52.915-25.273-56.31a5.009,5.009,0,0,1,5.795-4.073q.132.023.263.054" transform="translate(-199.259 -156.981)" fill="#f2bc97"/>
            <path id="Path_38103" data-name="Path 38103" d="M597.241,318.585s15.317,7.077,38.137,0c0,0,5.809-20.358,2.219-34.3s-14.472-14.372-19.122-12.676c0,0-12.889-2.219-18.17,4.224-5.054,6.167-10.352,19.724-3.064,42.755" transform="translate(-215.456 -98.321)" fill="#0f3163"/>
            <rect id="Rectangle_43" data-name="Rectangle 43" width="16.476" height="17.247" transform="translate(392.423 215.376)" fill="#f2bc97"/>
            <path id="Path_38104" data-name="Path 38104" d="M635.258,302.2c0,11.541-6.77,20.9-15.121,20.9s-15.122-9.364-15.122-20.9,6.768-20.9,15.122-20.9,15.121,9.364,15.121,20.9" transform="translate(-219.576 -102.089)" fill="#f2bc97"/>
          </g>
        </g>
        <g id="Group_46278" data-name="Group 46278" transform="translate(348.764 224.543)">
          <g id="Group_46277" data-name="Group 46277" clip-path="url(#clip-path)">
            <rect id="Rectangle_45" data-name="Rectangle 45" width="117.066" height="128.711" transform="translate(-6.466 0)" fill="#d44751"/>
          </g>
        </g>
        <g id="Group_46280" data-name="Group 46280">
          <g id="Group_46864" data-name="Group 46864">
            <path id="Path_38106" data-name="Path 38106" d="M570.956,513.173c-4.379,2.946,1.557,9.93,3.671,12.236,3.443,3.757,10.311,5.544,11.824,4.205s-6.831-9.427-6.75-10.017,4.527,2.949,5.818,1.544-3.976-6.851-6.914-8.192a6.725,6.725,0,0,0-7.659.229" transform="translate(-206.644 -185.768)" fill="#f2bc97"/>
            <path id="Path_38107" data-name="Path 38107" d="M687.8,432.672a7.428,7.428,0,0,0-5.29,4.972c-3.956,11.334-17.743,51.844-13.925,55.359,4.444,4.089,26.037-52.915,25.273-56.31a5.009,5.009,0,0,0-5.795-4.073c-.088.015-.176.033-.263.054" transform="translate(-242.408 -156.981)" fill="#f2bc97"/>
            <path id="Path_38108" data-name="Path 38108" d="M648.186,489.523l.094.278a332.906,332.906,0,0,0-44.4,22.506,447.6,447.6,0,0,0-44.365-20.833l.094-1.96V459.006h88.576Z" transform="translate(-203.063 -166.585)" fill="#f8fafb"/>
            <path id="Path_38109" data-name="Path 38109" d="M619.56,554.418s-98.863-8.76-108.88-30.286c-7.378-15.862,8.26-28.527,26.281-22.277S619.81,539.9,619.81,539.9Z" transform="translate(-184.66 -181.545)" fill="#0f3163"/>
            <path id="Path_38110" data-name="Path 38110" d="M692.576,565.034v12.815s16.911,1.121,18-.769,2.4-8.73-1.892-12-14.764-3.434-16.114-.043" transform="translate(-251.353 -204.166)" fill="#0f3163"/>
            <path id="Path_38111" data-name="Path 38111" d="M682.218,562.5l6.633,2.441v12.765l-6.884-.688Z" transform="translate(-247.504 -204.146)" fill="#dec6a0"/>
            <path id="Path_38112" data-name="Path 38112" d="M571.921,554.418s98.863-8.76,108.88-30.286c7.378-15.862-8.26-28.527-26.281-22.277S571.671,539.9,571.671,539.9Z" transform="translate(-207.474 -181.545)" fill="#253e8e"/>
            <path id="Path_38113" data-name="Path 38113" d="M568.275,562.5l-6.633,2.441v12.765l6.884-.688Z" transform="translate(-203.834 -204.146)" fill="#dec6a0"/>
            <path id="Path_38114" data-name="Path 38114" d="M550.973,565.034v12.815s-16.911,1.121-18-.769-2.4-8.73,1.892-12,14.764-3.434,16.114-.043" transform="translate(-193.037 -204.166)" fill="#253e8e"/>
            <path id="Path_38115" data-name="Path 38115" d="M598.944,299.589s13.875.971,22.74-5.091a16.112,16.112,0,0,0,3.733-5.908,9.493,9.493,0,0,0,2.06,4.912,21.034,21.034,0,0,1-.636-5.444s2.537,7.447,4.331,7.607,7.291,0,7.291,0l-7.621-17.038-24.261-2.541Z" transform="translate(-217.372 -100.199)" fill="#0f3163"/>
          </g>
        </g>
      </g>
    </g>
  </g>
</svg>
