<svg xmlns="http://www.w3.org/2000/svg" xmlns:xlink="http://www.w3.org/1999/xlink" width="26.682" height="23.194" viewBox="0 0 26.682 23.194">
  <defs>
    <clipPath id="clip-path">
      <rect id="Rectangle_18634" data-name="Rectangle 18634" width="25.312" height="16.431" transform="translate(0 0)" fill="#009354"/>
    </clipPath>
  </defs>
  <g id="Group_47186" data-name="Group 47186" transform="translate(0 1.577)">
    <g id="Group_47195" data-name="Group 47195">
      <circle id="Ellipse_32" data-name="Ellipse 32" cx="7" cy="7" r="7" transform="translate(1.41 6.186)" fill="#93f79d"/>
      <path id="Path_43443" data-name="Path 43443" d="M10.138,18.008a.29.29,0,0,0-.065-.182c-.829-1.016-1.7-2.069-2.532-2.975a.063.063,0,0,1,0-.09.067.067,0,0,1,.032-.017,2.537,2.537,0,0,0,2.182-2h.759a.592.592,0,1,0,.049-1.183H9.743a2.134,2.134,0,0,0-.276-.663h1.056a.592.592,0,0,0,0-1.184H6.1a.683.683,0,0,0-.683.683v0a.683.683,0,0,0,.683.683h.468A1.729,1.729,0,0,1,8,11.563H6.013a.592.592,0,0,0,0,1.183h2.1c-.154.376-.582.809-1.737.809H5.814a.394.394,0,0,0-.394.394V14.6a.284.284,0,0,0,.078.2c1.128,1.2,2.01,2.249,2.964,3.4a.288.288,0,0,0,.222.1H9.85a.288.288,0,0,0,.288-.288" fill="#009354" stroke="#94f79d" stroke-width="0.1"/>
      <path id="Path_43445" data-name="Path 43445" d="M14.561,6.708q1.93.01,3.861,0a.975.975,0,0,0,.387-.09.953.953,0,0,0,.539-1.057.971.971,0,0,0-.954-.766h-1.3c-.056,0-.111-.01-.194-.01h0c.053-.056.083-.091.116-.124l1.67-1.667c.454-.453.906-.9,1.354-1.353a.939.939,0,0,0,.186-1.1.963.963,0,0,0-1.574-.23Q17.507,1.456,16.366,2.6c-.267.268-.526.537-.826.837-.006-.1-.012-.157-.012-.212,0-.441.005-.883,0-1.325a.958.958,0,0,0-1.915,0q-.008,1.931,0,3.861a.957.957,0,0,0,.948.947" fill="#009354" stroke="#e8f0ff" stroke-width="0.1"/>
      <rect id="Rectangle_18635" data-name="Rectangle 18635" width="9" height="4" transform="translate(15.41 12.186)" fill="#94f79d"/>
      <rect id="Rectangle_18636" data-name="Rectangle 18636" width="12" height="4" transform="translate(12.41 16.186)" fill="#94f79d"/>
      <g id="Group_47196" data-name="Group 47196" transform="translate(0 5.186)">
        <g id="Group_47196-2" data-name="Group 47196" clip-path="url(#clip-path)">
          <path id="Path_43450" data-name="Path 43450" d="M24.967,11.109l-.042-.03a2.012,2.012,0,0,0,.383-1.171V7.929a2.038,2.038,0,0,0-2.03-2.03H16.1l-.011-.036A8.227,8.227,0,0,0,8.227,0,8.217,8.217,0,0,0,5.972,16.121a8.118,8.118,0,0,0,.96.21c.105.016.214.03.329.044a8.19,8.19,0,0,0,.93.055l.03-.007a8.331,8.331,0,0,0,.848-.05l.055-.006v.015l14.287,0a1.952,1.952,0,0,0,1.9-1.949V12.29a1.941,1.941,0,0,0-.385-1.152Zm-15.4,3.544c-.19.04-.385.071-.58.094a6.835,6.835,0,0,1-1.531,0c-.093-.011-.177-.023-.264-.036a6.714,6.714,0,0,1-.768-.168A6.588,6.588,0,0,1,8.213,1.619H8.23a6.6,6.6,0,0,1,6.445,7.872l0,.033c-.007.034-.015.065-.024.1l-.013.049a6.537,6.537,0,0,1-.359,1.128l-.016.035a6.58,6.58,0,0,1-4.693,3.822m14.11-.216a.315.315,0,0,1-.314.315H13.2l.111-.089a8.185,8.185,0,0,0,.785-.718c.014-.015.027-.03.041-.044s.036-.039.055-.057c.178-.189.349-.388.508-.59.041-.053.093-.124.141-.2.134-.185.263-.376.384-.569.028-.047.057-.1.084-.145l.066-.112.035-.058c.037-.059.068-.11.1-.169l.015-.028h7.839a.316.316,0,0,1,.315.316Zm0-4.534a.4.4,0,0,1-.4.4H16.168l.016-.062c.012-.047.019-.1.028-.144s.013-.077.021-.115c.028-.126.049-.255.07-.368l.012-.072c.025-.15.052-.306.068-.46.011-.1.015-.2.02-.291,0-.041,0-.083.005-.124,0-.059.008-.118.013-.178.008-.091.016-.187.016-.28,0-.213-.009-.423-.025-.626l0-.054h6.871a.4.4,0,0,1,.4.4Z" fill="#009354"/>
        </g>
      </g>
      <path id="Path_43900" data-name="Path 43900" d="M19.379.006q-1.93-.01-3.861,0a.975.975,0,0,0-.387.09.953.953,0,0,0-.539,1.057.971.971,0,0,0,.954.766h1.3c.056,0,.111.01.194.01h0c-.053.056-.083.091-.116.124L15.25,3.72c-.454.453-.906.9-1.354,1.353a.939.939,0,0,0-.186,1.1.963.963,0,0,0,1.574.23q1.149-1.145,2.29-2.289c.267-.268.526-.537.826-.837.006.1.012.157.012.212,0,.441-.005.883,0,1.325a.958.958,0,0,0,1.915,0q.008-1.931,0-3.861a.957.957,0,0,0-.948-.947" transform="translate(6.3 -1.528)" fill="#009354" stroke="#e8f0ff" stroke-width="0.1"/>
    </g>
  </g>
</svg>
