<svg xmlns="http://www.w3.org/2000/svg" width="25.766" height="18.968" viewBox="0 0 25.766 18.968">
  <g id="Group_47654" data-name="Group 47654" transform="translate(0 0)">
    <g id="Group_47194" data-name="Group 47194">
      <path id="Path_43415" data-name="Path 43415" d="M25.012,172.887a5.155,5.155,0,0,0-3.214-2.365,3.982,3.982,0,0,0-2.214.037c-.224.07-.447.156-.662.239l-.194.074a6.874,6.874,0,0,0-5.839-3.172h-.012a6.9,6.9,0,0,0-5.848,3.182,4.356,4.356,0,0,0-1.654-.479,4.738,4.738,0,0,0-3.346,1.059A5.1,5.1,0,0,0,0,175.825a1.015,1.015,0,0,0,.857.962A1.024,1.024,0,0,0,1,176.8a.974.974,0,0,0,.946-.7,1.95,1.95,0,0,0,.048-.488c0-.028,0-.057,0-.085a3.234,3.234,0,0,1,2.686-3.109,2.273,2.273,0,0,1,1.434.244,8.407,8.407,0,0,0-.51,2.154,7.5,7.5,0,0,0-.037,1.048.983.983,0,0,0,1.89.275,1.884,1.884,0,0,0,.093-.593,6.419,6.419,0,0,1,.963-3.269,5.128,5.128,0,0,1,3.723-2.546,4.383,4.383,0,0,1,2.557.356,5.828,5.828,0,0,1,3.354,4.682,5.674,5.674,0,0,1,.056.615c.009.165.019.337.039.506a.989.989,0,0,0,1.97-.095,6.68,6.68,0,0,0-.161-1.717c-.09-.383-.2-.764-.316-1.132l-.082-.273,0-.014a2.266,2.266,0,0,1,1.21-.263,3.137,3.137,0,0,1,2.509,1.64,3.284,3.284,0,0,1,.406,1.788.928.928,0,0,0,.263.665,1,1,0,0,0,1.722-.617,5.121,5.121,0,0,0-.747-2.976" transform="translate(0 -157.828)" fill="#ffa700"/>
      <circle id="Ellipse_29" data-name="Ellipse 29" cx="4" cy="4" r="4" transform="translate(8.883 0.484)" fill="#ffd689"/>
      <circle id="Ellipse_30" data-name="Ellipse 30" cx="3" cy="3" r="3" transform="translate(1.883 4.484)" fill="#ffd689"/>
      <circle id="Ellipse_31" data-name="Ellipse 31" cx="3" cy="3" r="3" transform="matrix(0.996, 0.087, -0.087, 0.996, 18.156, 4.234)" fill="#ffd689"/>
      <path id="Path_43416" data-name="Path 43416" d="M147.543,8.678h.006a4.325,4.325,0,1,0-.006,0m2.365-4.337a2.348,2.348,0,0,1-2.35,2.343h0a2.346,2.346,0,0,1,.014-4.692h0a2.346,2.346,0,0,1,2.336,2.349" transform="translate(-134.79 0)" fill="#ffa700"/>
      <path id="Path_43417" data-name="Path 43417" d="M297.5,81.488h.008a3.373,3.373,0,0,0,2.4-5.751,3.334,3.334,0,0,0-2.384-.993h0a3.388,3.388,0,0,0-3.38,3.383,3.384,3.384,0,0,0,3.353,3.361m-1.359-3.369a1.374,1.374,0,0,1,.41-.981,1.4,1.4,0,0,1,.987-.4h.006a1.379,1.379,0,0,1-.016,2.757h-.006a1.38,1.38,0,0,1-1.381-1.376" transform="translate(-276.827 -70.344)" fill="#ffa700"/>
      <path id="Path_43418" data-name="Path 43418" d="M28.436,81.486h.018a3.387,3.387,0,0,0,2.412-1.008,3.323,3.323,0,0,0,.962-2.377,3.36,3.36,0,0,0-3.4-3.359H28.4a3.283,3.283,0,0,0-2.348,1.01,3.375,3.375,0,0,0,2.382,5.734m.027-4.751a1.378,1.378,0,0,1,.006,2.757,1.374,1.374,0,0,1-1.382-1.366,1.367,1.367,0,0,1,1.372-1.391Z" transform="translate(-23.615 -70.341)" fill="#ffa700"/>
    </g>
  </g>
</svg>
