<svg id="Group_48626" data-name="Group 48626" xmlns="http://www.w3.org/2000/svg" xmlns:xlink="http://www.w3.org/1999/xlink" width="19.456" height="19.437" viewBox="0 0 19.456 19.437">
  <defs>
    <clipPath id="clip-path">
      <rect id="Rectangle_28327" data-name="Rectangle 28327" width="19.456" height="19.437" fill="none"/>
    </clipPath>
  </defs>
  <g id="Group_48625" data-name="Group 48625" clip-path="url(#clip-path)">
    <path id="Path_44198" data-name="Path 44198" d="M2.787,165.194A5.847,5.847,0,0,0,4,166.268a2.85,2.85,0,0,0,3.217-.284l2.852-2.852a.949.949,0,0,1,1.476,1.168c-.915.949-1.825,1.93-2.788,2.834a4.724,4.724,0,0,1-6.669.041,5.361,5.361,0,0,1-2.082-3.848c-.142-2.92,2.426-4.339,4.124-6.257a.947.947,0,0,1,1.314,1.355c-.881.963-1.951,1.838-2.811,2.811a2.826,2.826,0,0,0,.155,3.958" transform="translate(0 -150.411)" fill="#238be6"/>
    <path id="Path_44199" data-name="Path 44199" d="M167.7,2.188a4.716,4.716,0,0,1-.08,6.492c-.855.927-1.833,1.777-2.7,2.7A.952.952,0,1,1,163.611,10c.671-.752,1.5-1.467,2.21-2.192a3.658,3.658,0,0,0,1.15-1.691c.39-1.51-.407-2.537-1.459-3.463a2.837,2.837,0,0,0-3.849-.04c-.969.852-1.84,1.927-2.8,2.8a.948.948,0,0,1-1.385-1.282c1-.928,1.921-2.025,2.933-2.935a4.749,4.749,0,0,1,5.414-.633A7.6,7.6,0,0,1,167.7,2.188" transform="translate(-150.824 0)" fill="#238be6"/>
    <path id="Path_44200" data-name="Path 44200" d="M116.848,123.157l6.773-6.758a.948.948,0,0,1,1.385,1.241c-2.245,2.338-4.582,4.6-6.864,6.9a.949.949,0,0,1-1.293-1.386" transform="translate(-111.786 -111.433)" fill="#238be6"/>
    <path id="Path_44201" data-name="Path 44201" d="M317.272,316.827v1.508a.966.966,0,0,1-1.215.8c-1-.291-.574-1.5-.672-2.242-.009-.067-.024-.083-.092-.092a7.989,7.989,0,0,1-1.714-.071.95.95,0,0,1,.041-1.743,8.849,8.849,0,0,1,1.653-.05c.076-.007.1-.009.113-.093.076-.584-.185-1.461.214-1.94a.951.951,0,0,1,1.476.022c.373.481.12,1.342.2,1.917.009.068.025.083.092.092.459.061,1.083-.071,1.535,0a.975.975,0,0,1,.707,1.169c-.249.988-1.48.633-2.222.692a.65.65,0,0,0-.112.022" transform="translate(-300.175 -299.735)" fill="#238be6"/>
  </g>
</svg>
